<?xml version="1.0" encoding="UTF-8" standalone="no"?>
<!-- Created with Inkscape (http://www.inkscape.org/) -->

<svg
   width="185.06639mm"
   height="244.86856mm"
   viewBox="0 0 185.06639 244.86856"
   version="1.1"
   id="svg5980"
   inkscape:version="1.4.4 (dcaf3e7, 2026-05-05)"
   sodipodi:docname="squirreldb.svg"
   inkscape:export-filename="squirreldb.png"
   inkscape:export-xdpi="49.975227"
   inkscape:export-ydpi="49.975227"
   xmlns:inkscape="http://www.inkscape.org/namespaces/inkscape"
   xmlns:sodipodi="http://sodipodi.sourceforge.net/DTD/sodipodi-0.dtd"
   xmlns="http://www.w3.org/2000/svg"
   xmlns:svg="http://www.w3.org/2000/svg"
   xmlns:rdf="http://www.w3.org/1999/02/22-rdf-syntax-ns#"
   xmlns:cc="http://creativecommons.org/ns#"
   xmlns:dc="http://purl.org/dc/elements/1.1/">
  <defs
     id="defs5974" />
  <sodipodi:namedview
     id="base"
     pagecolor="#ffffff"
     bordercolor="#666666"
     borderopacity="1.0"
     inkscape:pageopacity="0.0"
     inkscape:pageshadow="2"
     inkscape:zoom="1.2042227"
     inkscape:cx="4.9824671"
     inkscape:cy="496.58589"
     inkscape:document-units="mm"
     inkscape:current-layer="layer1"
     showgrid="false"
     inkscape:window-width="3008"
     inkscape:window-height="1543"
     inkscape:window-x="0"
     inkscape:window-y="30"
     inkscape:window-maximized="1"
     inkscape:pagecheckerboard="0"
     inkscape:showpageshadow="2"
     inkscape:deskcolor="#d1d1d1" />
  <metadata
     id="metadata5977">
    <rdf:RDF>
      <cc:Work
         rdf:about="">
        <dc:format>image/svg+xml</dc:format>
        <dc:type
           rdf:resource="http://purl.org/dc/dcmitype/StillImage" />
      </cc:Work>
    </rdf:RDF>
  </metadata>
  <g
     inkscape:label="Layer 1"
     inkscape:groupmode="layer"
     id="layer1"
     transform="translate(-12.486885,-3.562602)">
    <g
       id="g4"
       transform="matrix(0.93667034,0,0,0.93667034,185.43858,11.34256)">
      <path
         style="fill:#c16918;fill-opacity:1;stroke:#000000;stroke-width:2.10501;stroke-linecap:butt;stroke-linejoin:miter;stroke-dasharray:none;stroke-opacity:1"
         d="m -143.6605,152.17907 c -1.40776,-27.71709 0.33841,-37.21672 -5.82136,-47.9497 -15.90149,-27.707307 -50.49903,7.3324 -25.05035,16.0716 2.73632,-21.674827 9.04119,-0.1623 0.015,28.88031 -8.40432,27.04162 10.33997,51.79327 32.15007,58.61117 v 0 z"
         id="path1"
         sodipodi:nodetypes="cscsccc" />
      <path
         id="path3855-2-1-1-7"
         d="m -159.07199,144.94008 c 0.3381,6.96568 7.30379,3.71979 10.41459,1.5554 2.9757,-2.0965 3.8549,-0.3381 4.1251,-4.39599 0.20299,-2.70481 0.4732,-5.34241 0.3381,-8.04721 -4.53109,-0.40598 -9.40028,0.67619 -13.12008,3.381 -1.96072,1.35241 -5.4775,5.81629 -1.7584,7.5068 m 138.839864,85.61616 c 5.342405,3.31379 15.8685906,13.10155 7.100806,18.19226 -7.709787,7.03358 -12.037194,-7.77766 -18.800576,-9.80627 2.907807,-3.99 6.559705,-7.6419 11.69977,-8.38599 z m -97.452914,10.02009 c -5.07116,4.76815 -7.9788,7.90128 -13.2533,10.80976 -4.93707,2.90781 -6.83057,-0.94709 -7.23656,-1.7584 -0.74342,-0.3381 -0.67621,0.33811 -1.89351,-0.87919 -4.59831,-7.23658 4.73408,-12.51108 9.60328,-16.09577 6.76269,-1.3524 -3.10872,-9.99393 12.78009,7.9236 z M 9.4555464,144.06088 c -0.338099,6.96568 -7.3037818,3.71979 -10.41459136,1.5554 -2.97568634,-2.0965 -3.85487334,-0.3381 -4.12509334,-4.39599 -0.2036634,-2.70481 -0.4738834,-5.34241 -0.3380989,-8.0472 4.53041002,-0.40599 9.3996067,0.6762 13.1193965,3.381 1.8941715,1.3524 5.4781767,5.81628 1.7583871,7.50679"
         inkscape:connector-curvature="0"
         style="fill:#f6d2a2;stroke-width:0.678917"
         sodipodi:nodetypes="cccccccccccccccccccccc" />
      <path
         id="path3857-4-7-3-1"
         d="M -10.822604,49.108474 C -0.30230496,38.127032 -0.41847482,22.873983 -0.62103642,21.399929 -15.042062,18.067974 -26.917019,20.544236 -28.223026,22.674544 c -9.347291,-8.317958 -17.208382,-10.507907 -30.011876,-12.03741 -1.491988,-0.178233 2.265731,-10.46665684 1.12536,-10.70253639 -4.46536,-0.92363539 -8.18055,8.32164029 -9.036711,8.34193939 -1.601082,0.037961 0.653028,-12.0366848 -0.43646,-11.869965 -5.633504,0.8620713 -8.174619,13.4237082 -8.909097,13.269258 -4.43347,-10.00209146 -14.956467,-18.9172457 -14.783744,-16.6151363 0.269417,3.590898 4.144379,16.5979354 0.154756,17.7682573 -14.994882,4.398619 -24.406762,7.347019 -34.335542,13.288758 -6.31097,-3.914182 -20.56873,-5.242772 -28.00336,-0.504521 -0.70351,5.829233 3.5907,21.47579 11.60072,28.461899 1.98885,18.016348 -2.87351,27.358501 -5.25613,28.812985 5.93723,23.886358 2.79359,38.550228 1.64934,58.286508 -1.01429,25.3951 -7.43889,59.41719 6.15438,82.21644 11.56467,19.50196 36.45106,26.44723 56.942788,27.21908 26.171587,0.98171 57.888531,-5.68256 70.60261,-31.98893 C 1.407,191.57749 -1.9740164,160.36041 -3.5294145,133.35258 -12.969141,105.00099 -8.5982856,89.61479 -5.7695648,81.415879 -10.870366,74.01188 -9.2714894,59.45495 -10.822604,49.108474 Z"
         inkscape:connector-curvature="0"
         style="fill:#c16918;fill-opacity:1;stroke:#000000;stroke-width:2;stroke-dasharray:none;stroke-opacity:1"
         sodipodi:nodetypes="cccsssscssccccccccccc" />
      <ellipse
         cy="62.652939"
         cx="-75.603783"
         id="path838-3-3-8-2"
         style="fill:#69d7e2;fill-opacity:1;stroke:#000000;stroke-width:2;stroke-linecap:round;stroke-linejoin:bevel;stroke-miterlimit:4;stroke-dasharray:none;stroke-dashoffset:0;stroke-opacity:1"
         rx="57.708557"
         ry="46.034813" />
      <path
         id="path838-3-3-8-2-9"
         style="fill:#f6d2a2;fill-opacity:1;stroke:#000000;stroke-width:1.7228;stroke-linecap:round;stroke-linejoin:bevel"
         d="m -54.723888,105.43474 c 3.515598,2.2393 -2.080126,30.17801 1.506874,34.65386 8.640495,16.84158 12.13064,28.61569 11.82757,41.78815 -0.40129,17.44153 -7.16776,32.52123 -33.47565,34.90927 -24.51566,2.22536 -38.326686,-17.3626 -38.800516,-35.72848 -0.3916,-15.17886 -2.89735,-22.19531 11.24813,-36.08502 1.93005,-1.89516 5.691926,-9.64173 5.604746,-19.22989 -0.0867,-9.53434 -1.826962,-16.63452 -2.430731,-21.27339 7.686335,3.9172 37.633194,5.64569 44.519577,0.9655 z"
         sodipodi:nodetypes="ccssssscc" />
      <path
         id="path3861-7-4-3-7"
         d="m -67.260697,87.882545 c 0.06784,3.448896 0.744104,7.235889 0.13511,10.887794 -0.947092,1.758391 -2.704805,1.962071 -4.260203,2.637591 -2.164392,-0.3381 -3.990684,-1.758392 -4.869197,-3.787008 -0.541101,-4.125094 0.135097,-8.047879 0.338099,-12.172972 0,-0.135782 2.569695,0.06788 4.869197,0.744089 1.960702,0.608308 3.786994,1.622615 3.786994,1.690506 z m -19.138673,0.27021 c -1.894172,7.169362 2.502491,18.868455 9.738392,9.265176 -0.541101,-4.057884 0.06784,-7.979987 0.270207,-11.969981 0.06784,-0.338099 -9.940707,2.231596 -10.008599,2.704805 z"
         inkscape:connector-curvature="0"
         style="fill:#ffffff;stroke-width:0.678917" />
      <path
         id="path3863-3-7-5-6"
         d="m -66.449389,91.061231 c -0.135784,-2.029277 -0.203002,-2.840585 -0.203002,-3.854894 v -0.473199 l -0.473196,-0.135781 -8.521094,-2.636915 v -0.473891 l -0.8792,0.203683 h -0.06784 v 0.06717 l -9.602608,2.434597 -0.338099,0.06788 -0.135771,0.337417 c -1.48752,3.584686 -1.149407,8.994968 0.744077,12.308773 2.164391,3.786999 5.680504,3.854219 9.265196,-0.47388 a 6.9195205,6.9195205 0 0 0 5.071498,3.652569 h 0.20369 l 0.202314,-0.0679 c 0.270882,-0.13578 0.541088,-0.20367 1.014985,-0.40599 0.06784,0 0.06784,0 0.135097,-0.0679 1.960715,-0.67621 2.772697,-1.21729 3.448908,-2.501815 l 0.06784,-0.06788 v -0.1351 c 0.202314,-1.217308 0.270206,-2.502497 0.270206,-3.922112 0,-1.014982 -0.06784,-1.962072 -0.203002,-3.854885 z m -10.820582,-2.502486 c -0.06784,1.217298 -0.13511,1.690507 -0.202315,2.366704 -0.135784,2.502488 -0.135784,4.395986 0.06784,6.289481 -3.179374,4.0579 -5.681177,4.0579 -7.371686,1.014309 -1.623277,-2.839914 -1.962063,-7.641888 -0.74409,-10.819901 l 8.520419,-2.164389 c -0.06731,0.879199 -0.134436,1.758398 -0.270207,3.313796 z m 9.468186,10.009276 c -0.473209,0.811298 -1.082202,1.217299 -2.705493,1.758389 -0.06784,0 -0.06784,0 -0.13511,0.0673 -0.405303,0.13578 -0.676197,0.27021 -0.879186,0.3381 -1.826293,-0.3381 -3.381017,-1.555399 -4.125107,-3.245906 -0.203002,-1.826289 -0.203002,-3.719785 -0.06784,-6.22159 0.06784,-0.676881 0.06784,-1.15009 0.203676,-2.367387 0.134423,-1.554715 0.202315,-2.501806 0.202315,-3.381005 l 7.371687,2.231596 c 0,0.879199 0.06784,1.690507 0.202989,3.448905 0.13511,1.826279 0.202328,2.772696 0.202328,3.854885 0,1.284506 -0.06784,2.434596 -0.270207,3.516795 z"
         inkscape:connector-curvature="0"
         style="stroke-width:0.678917" />
      <g
         id="g3873-7-1-4-0"
         transform="matrix(0.67891685,0,0,0.67891685,-128.66329,32.11156)"
         style="stroke-width:2.94587;stroke-dasharray:none">
        <path
           id="path3865-9-3-3-0"
           d="m 2.291,38.749 c 9.164,35.66 66.241,26.496 64.05,-9.264 C 63.75,-13.348 -6.475,-5.08 2.29,38.749"
           inkscape:connector-curvature="0"
           style="fill:#ffffff;stroke-width:2.94587;stroke-dasharray:none" />
        <path
           id="path3867-0-8-6-9"
           d="M 67.337,29.385 C 66.739,19.025 62.157,10.957 54.587,5.877 47.813,1.295 38.848,-0.498 29.983,0.597 21.118,1.794 12.949,5.778 7.57,12.054 1.594,19.026 -0.697,28.19 1.395,38.749 l 0.896,-0.2 -0.896,0.2 C 10.758,75.405 69.528,66.54 67.337,29.385 Z M 3.187,38.55 C 1.195,28.49 3.387,19.923 8.965,13.448 14.045,7.571 21.715,3.687 30.182,2.591 c 8.467,-1.096 16.934,0.598 23.31,4.98 7.071,4.782 11.355,12.253 11.952,22.114 2.092,34.764 -53.391,43.132 -62.256,8.865 z"
           inkscape:connector-curvature="0"
           style="stroke-width:2.94587;stroke-dasharray:none" />
        <ellipse
           id="ellipse3869-2-4-5-5"
           ry="10.459"
           rx="9.6619997"
           cy="32.872002"
           cx="18.030001"
           style="stroke-width:2.94587;stroke-dasharray:none" />
        <ellipse
           id="ellipse3871-3-8-9-6"
           ry="2.6889999"
           rx="2.2909999"
           cy="35.262001"
           cx="22.412001"
           style="fill:#ffffff;stroke-width:2.94587;stroke-dasharray:none" />
      </g>
      <g
         id="g3883-9-0-5-2"
         transform="matrix(0.67891685,0,0,0.67891685,-73.57462,29.478723)"
         style="stroke-width:2.94587;stroke-dasharray:none">
        <path
           id="path3875-9-4-4-8"
           d="M 1.195,35.96 C 8.268,76.9 75.206,66.042 65.544,24.803 56.878,-12.252 -1.196,-1.992 1.195,35.96"
           inkscape:connector-curvature="0"
           style="fill:#ffffff;stroke-width:2.94587;stroke-dasharray:none" />
        <path
           id="path3877-7-6-9-5"
           d="M 66.44,24.604 C 57.575,-13.547 -2.19,-3.088 0.2,36.059 v 0.1 C 3.486,55.483 20.72,65.345 39.745,62.157 48.41,60.663 56.18,56.48 61.26,50.304 66.838,43.43 68.83,34.565 66.44,24.604 Z M 59.767,49.108 C 54.985,54.886 47.714,58.87 39.446,60.265 21.416,63.253 5.279,53.989 2.092,35.86 -0.1,-0.996 56.28,-10.858 64.647,25.002 c 2.192,9.463 0.399,17.731 -4.88,24.106 z"
           inkscape:connector-curvature="0"
           style="stroke-width:2.94587;stroke-dasharray:none" />
        <ellipse
           id="ellipse3879-0-0-1-9"
           ry="10.459"
           rx="9.4630003"
           cy="34.167"
           cx="17.631001"
           style="stroke-width:2.94587;stroke-dasharray:none" />
        <ellipse
           id="ellipse3881-3-3-7-4"
           ry="2.6889999"
           rx="2.191"
           cy="36.556999"
           cx="22.014"
           style="fill:#ffffff;stroke-width:2.94587;stroke-dasharray:none" />
      </g>
      <g
         id="g3891-9-2-5-3"
         transform="matrix(0.67891685,0,0,0.67891685,-161.57448,17.191679)">
        <path
           id="path3885-8-6-5-9"
           d="m 112.785,83.002 c -7.87,0.697 -14.245,9.961 -10.16,17.332 5.378,9.762 17.431,-0.896 24.902,0.1 8.666,0.2 15.739,9.164 22.612,1.594 7.67,-8.368 -3.287,-16.536 -11.954,-20.122 z"
           inkscape:connector-curvature="0"
           style="fill:#f6d2a2" />
        <path
           id="path3887-6-9-4-0"
           d="m 151.135,89.676 c -2.69,-3.387 -7.371,-6.475 -12.452,-8.567 l -0.199,-0.1 h -0.199 l -25.5,0.997 c -8.866,0.797 -15.24,11.057 -10.958,18.826 1.694,2.989 3.985,4.483 7.073,4.682 2.29,0.1 4.682,-0.398 8.367,-1.693 0.299,-0.1 0.697,-0.2 1.195,-0.399 4.981,-1.693 6.973,-2.191 8.965,-1.892 h 0.1 c 2.39,0 4.383,0.697 8.168,2.191 4.184,1.693 5.479,2.192 7.57,2.39 2.89,0.2 5.38,-0.796 7.67,-3.286 3.885,-4.284 3.686,-8.866 0.2,-13.149 z m -1.694,11.754 c -1.892,2.092 -3.785,2.79 -6.076,2.69 -1.793,-0.1 -2.988,-0.598 -6.973,-2.192 -3.984,-1.693 -6.175,-2.29 -8.765,-2.39 -2.49,-0.3 -4.582,0.199 -9.862,1.992 -0.498,0.199 -0.896,0.299 -1.195,0.398 -7.272,2.49 -10.758,2.291 -13.149,-2.092 -3.586,-6.474 1.893,-15.24 9.364,-15.937 l 25.201,-0.997 c 4.782,1.993 9.065,4.881 11.555,7.97 2.988,3.585 3.088,7.171 -0.1,10.558 z"
           inkscape:connector-curvature="0"
           style="fill:#231f20" />
        <path
           id="path3889-5-4-1-5"
           d="m 140.178,78.719 c -3.088,-11.356 -28.987,-9.662 -28.39,3.885 1.295,10.06 31.378,7.37 28.39,-3.885 z"
           inkscape:connector-curvature="0" />
      </g>
      <path
         style="fill:none;stroke:#000000;stroke-width:2;stroke-linecap:butt;stroke-linejoin:miter;stroke-dasharray:none;stroke-opacity:1"
         d="m -143.92914,134.65201 c -14.63936,0.41159 -18.65323,5.77409 -15.04581,9.59112 0.34696,0.36711 2.81153,-0.73219 3.00142,-0.24199 0.0105,0.26343 -2.89751,0.64066 -2.88125,0.88119 0.32586,4.82054 5.69984,4.35451 14.35797,-0.92483"
         id="path2"
         sodipodi:nodetypes="cscsc" />
      <path
         style="fill:none;stroke:#000000;stroke-width:2;stroke-linecap:butt;stroke-linejoin:miter;stroke-dasharray:none;stroke-opacity:1"
         d="m -4.080278,133.80542 c 14.63936,0.41159 18.335682,6.72673 14.728262,10.54376 -0.34696,0.36711 -2.81153,-0.73219 -3.00142,-0.24199 -0.0105,0.26343 2.509396,0.57009 2.493136,0.81062 -0.3258602,4.82054 -4.6766301,4.84848 -13.3347601,-0.43086"
         id="path2-4"
         sodipodi:nodetypes="cscsc" />
      <path
         style="fill:none;stroke:#000000;stroke-width:2;stroke-linecap:butt;stroke-linejoin:miter;stroke-dasharray:none;stroke-opacity:1"
         d="m -21.169107,231.03857 c 13.2334214,6.2735 14.4157616,14.64529 9.576427,16.68589 -0.465441,0.19625 -4.186008,-7.91908 -4.557265,-7.54689 -0.115721,0.23688 4.362144,7.91496 4.189803,8.08353 -4.954969,4.84654 -12.937251,-1.70987 -18.688255,-10.03932"
         id="path2-4-7"
         sodipodi:nodetypes="cscsc" />
      <path
         style="fill:none;stroke:#000000;stroke-width:2;stroke-linecap:butt;stroke-linejoin:miter;stroke-dasharray:none;stroke-opacity:1"
         d="m -128.62608,232.52942 c -13.23342,6.2735 -14.13887,15.42058 -9.29954,17.46118 0.46545,0.19625 4.18601,-7.91908 4.55727,-7.54689 0.11572,0.23688 -4.36214,7.91496 -4.1898,8.08353 4.95497,4.84654 13.49103,-2.15289 19.24203,-10.48234"
         id="path2-4-7-1"
         sodipodi:nodetypes="cscsc" />
      <path
         style="fill:none;stroke:#000000;stroke-width:2;stroke-linecap:butt;stroke-linejoin:miter;stroke-dasharray:none;stroke-opacity:1"
         d="m -140.8735,51.735924 c 1.97557,-10.333018 5.69939,-20.454077 16.66233,-27.749129"
         id="path3"
         sodipodi:nodetypes="cc" />
      <path
         style="fill:#000000;fill-opacity:1;stroke:#000000;stroke-width:2.78325;stroke-dasharray:none;stroke-opacity:1"
         id="path4"
         sodipodi:type="arc"
         sodipodi:cx="135.97749"
         sodipodi:cy="-33.50774"
         sodipodi:rx="4.286737"
         sodipodi:ry="4.8038917"
         sodipodi:start="5.2738215"
         sodipodi:end="2.3047716"
         sodipodi:arc-type="slice"
         d="m 138.25975,-37.574202 a 4.286737,4.8038917 0 0 1 1.98501,4.52381 4.286737,4.8038917 0 0 1 -2.71417,4.020171 4.286737,4.8038917 0 0 1 -4.42447,-0.910545 l 2.87137,-3.566974 z"
         transform="scale(-1)" />
      <path
         style="fill:none;stroke:#000000;stroke-width:2;stroke-linecap:butt;stroke-linejoin:miter;stroke-dasharray:none;stroke-opacity:1"
         d="M -10.767022,49.356412 C -12.742592,39.023394 -20.37238,29.549127 -28.467031,22.447989"
         id="path3-4"
         sodipodi:nodetypes="cc" />
      <path
         style="fill:#000000;fill-opacity:1;stroke:#000000;stroke-width:2.78325;stroke-dasharray:none;stroke-opacity:1"
         id="path4-1"
         sodipodi:type="arc"
         sodipodi:cx="-16.500109"
         sodipodi:cy="-31.795702"
         sodipodi:rx="4.286737"
         sodipodi:ry="4.8038917"
         sodipodi:start="5.341323"
         sodipodi:end="2.3599599"
         sodipodi:arc-type="slice"
         d="m -13.978294,-35.680393 a 4.286737,4.8038917 0 0 1 1.711023,4.644086 4.286737,4.8038917 0 0 1 -2.919239,3.813392 4.286737,4.8038917 0 0 1 -4.356172,-1.188737 l 3.042573,-3.38405 z"
         transform="scale(1,-1)" />
    </g>
  </g>
</svg>
